<svg width="192" height="56" viewBox="0 0 192 56" xmlns="http://www.w3.org/2000/svg">
<path fill-rule="evenodd" clip-rule="evenodd" d="M44.3514 29.3167L25.9697 44.5L47.533 43.6978L51.0774 43L48.3701 28.75L44.3514 29.3167Z" fill="#018B88"/>
<path fill-rule="evenodd" clip-rule="evenodd" d="M28.3229 4L23.6152 10.4463L36.1691 16L28.3229 4Z" fill="#E48F24"/>
<path fill-rule="evenodd" clip-rule="evenodd" d="M4 42.25L17.3385 46L17.2442 19.75L4 42.25Z" fill="#034F83"/>
<path fill-rule="evenodd" clip-rule="evenodd" d="M15.0291 5.96265L4 42.25L28.3231 4L15.0291 5.96265Z" fill="#F6BC16"/>
<path fill-rule="evenodd" clip-rule="evenodd" d="M51.2428 43L55.0002 28.9452L28.3232 4L51.2428 43Z" fill="#00B2AC"/>
<path fill-rule="evenodd" clip-rule="evenodd" d="M14.1356 52L51.2427 43L4 42.25L14.1356 52Z" fill="#2464AF"/>
<path d="M156.822 20.1888C156.822 21.3984 155.847 22.3776 154.643 22.3776C153.468 22.3776 152.465 21.3984 152.465 20.1888C152.465 18.9792 153.468 18 154.643 18C155.847 18 156.822 18.9792 156.822 20.1888Z"/>
<path d="M156.478 38.3328H152.837V24.4224H156.478V38.3328Z"/>
<path fill-rule="evenodd" clip-rule="evenodd" d="M126.854 38.3328H137.232C140.873 38.3328 142.794 36.0288 142.794 33.1488C142.794 30.7296 141.16 28.7424 139.124 28.4256C140.93 28.0512 142.421 26.4384 142.421 24.0192C142.421 21.456 140.557 19.1232 136.917 19.1232H126.854V38.3328ZM130.925 26.8416V22.608H136.028C137.404 22.608 138.264 23.5296 138.264 24.7104C138.264 25.9488 137.404 26.8416 136.028 26.8416H130.925ZM130.925 34.848V30.3264H136.171C137.777 30.3264 138.637 31.3632 138.637 32.5728C138.637 33.9552 137.719 34.848 136.171 34.848H130.925Z"/>
<path d="M145.682 38.3328H149.323V19.1232H145.682V38.3328Z"/>
<path d="M169.338 38.3328H172.979V28.512C172.979 25.8048 171.517 24.0768 168.478 24.0768C166.214 24.0768 164.522 25.1712 163.633 26.2368V24.4224H159.993V38.3328H163.633V28.9728C164.236 28.1376 165.354 27.3312 166.787 27.3312C168.335 27.3312 169.338 27.9936 169.338 29.9232V38.3328Z"/>
<path d="M182.949 38.6784C178.677 38.6784 175.61 35.6544 175.61 31.3632C175.61 27.1008 178.677 24.0768 182.949 24.0768C185.787 24.0768 187.507 25.3152 188.424 26.5824L186.045 28.8288C185.386 27.8496 184.382 27.3312 183.121 27.3312C180.913 27.3312 179.365 28.944 179.365 31.3632C179.365 33.7824 180.913 35.424 183.121 35.424C184.382 35.424 185.386 34.848 186.045 33.9264L188.424 36.144C187.507 37.44 185.787 38.6784 182.949 38.6784Z"/>
<path fill-rule="evenodd" clip-rule="evenodd" d="M71 28.7424C71 34.416 74.8128 38.6784 80.489 38.6784C86.1366 38.6784 89.9781 34.416 89.9781 28.7424C89.9781 23.0688 86.1366 18.8064 80.489 18.8064C74.8128 18.8064 71 23.0688 71 28.7424ZM87.5126 28.7424C87.5126 33.2064 84.7605 36.5472 80.489 36.5472C76.1889 36.5472 73.4654 33.2064 73.4654 28.7424C73.4654 24.2496 76.1889 20.9376 80.489 20.9376C84.7605 20.9376 87.5126 24.2496 87.5126 28.7424Z"/>
<path d="M102.859 38.3328H105.009V28.5696C105.009 25.5456 103.49 24.0768 100.594 24.0768C98.5301 24.0768 96.638 25.2864 95.6633 26.4384V24.4224H93.5132V38.3328H95.6633V28.1664C96.466 27.0432 98.0714 26.0064 99.7628 26.0064C101.626 26.0064 102.859 26.784 102.859 29.232V38.3328Z"/>
<path fill-rule="evenodd" clip-rule="evenodd" d="M115.457 38.6784C111.357 38.6784 108.405 35.712 108.405 31.3632C108.405 27.3312 111.271 24.0768 115.228 24.0768C119.413 24.0768 121.878 27.36 121.878 31.536V32.0832H110.669C110.841 34.704 112.676 36.8928 115.658 36.8928C117.234 36.8928 118.84 36.2592 119.929 35.136L120.961 36.5472C119.585 37.9296 117.722 38.6784 115.457 38.6784ZM119.757 30.4992C119.728 28.4256 118.352 25.8624 115.199 25.8624C112.246 25.8624 110.784 28.368 110.669 30.4992H119.757Z"/>
</svg>
